<?xml version="1.0" encoding="UTF-8" standalone="no"?>
<!DOCTYPE svg PUBLIC "-//W3C//DTD SVG 1.1//EN" "http://www.w3.org/Graphics/SVG/1.1/DTD/svg11.dtd">
<svg width="100%" height="100%" viewBox="0 0 1176 798" version="1.1" xmlns="http://www.w3.org/2000/svg" xmlns:xlink="http://www.w3.org/1999/xlink" xml:space="preserve" xmlns:serif="http://www.serif.com/" style="fill-rule:evenodd;clip-rule:evenodd;stroke-linecap:square;stroke-linejoin:round;stroke-miterlimit:1.5;">
    <g transform="matrix(1,0,0,1,-3570,-170)">
        <g id="Tavola-da-disegno8" serif:id="Tavola da disegno8" transform="matrix(0.988129,0,0,1.48775,41.5145,-83.6366)">
            <rect x="3570.87" y="170.483" width="1190" height="535.892" style="fill:none;"/>
        </g>
        <g transform="matrix(0.508838,0,0,0.508838,-6274.13,-1469.82)">
            <rect x="19348" y="3223.63" width="2338.66" height="1053.17" style="fill:none;"/>
        </g>
        <g transform="matrix(2.32319,0,0,2.72548,-9097.72,-3862.57)">
            <g transform="matrix(3.51712e-17,-0.528429,1.79714,1.02027e-16,-8711.82,13235.7)">
                <rect x="21693.6" y="7881.92" width="553.241" height="281.43" style="fill:url(#_Radial1);"/>
            </g>
            <g transform="matrix(-0.0945293,-0.0480198,0.0450851,-0.0757122,5914.31,1780.8)">
                <path d="M676.166,651.678C673.313,645.971 667.764,642.643 661.681,642.992C655.599,643.341 649.946,647.311 646.924,653.355L457.947,1031.31C455.088,1037.03 455.001,1043.77 457.717,1049.16C460.433,1054.55 465.569,1057.82 471.31,1057.82L849.263,1057.82C855.313,1057.82 861.11,1054.19 864.408,1048.34C867.706,1042.48 867.987,1035.32 865.143,1029.63L676.166,651.678ZM660.871,699.561L500.191,1020.92L821.55,1020.92L660.871,699.561Z" style="fill:url(#_Linear2);"/>
            </g>
            <g transform="matrix(-0.0206872,-0.0633407,0.0594697,-0.0165692,5892.08,1603.1)">
                <path d="M674.92,650.71C672.111,645.092 667.073,641.803 661.61,642.019C656.146,642.236 651.039,645.928 648.117,651.773L459.14,1029.73C456.137,1035.73 455.887,1043.12 458.485,1049.1C461.082,1055.09 466.134,1058.78 471.742,1058.78L849.695,1058.78C855.485,1058.78 860.948,1054.85 863.916,1048.56C866.883,1042.27 866.876,1034.62 863.896,1028.66C863.896,1028.66 674.92,650.71 674.92,650.71ZM661.051,698.396L500.268,1019.96L821.834,1019.96L661.051,698.396Z" style="fill:url(#_Linear3);"/>
            </g>
            <g transform="matrix(0.132488,-0.0456838,0.0353688,0.0875028,5730.21,1534.28)">
                <path d="M673.529,651.417C670.754,645.868 666.115,642.383 661.185,642.145C656.254,641.907 651.694,644.947 649.05,650.235L460.074,1028.19C457.133,1034.07 457.024,1041.79 459.79,1048.21C462.556,1054.62 467.735,1058.66 473.211,1058.66L851.164,1058.66C856.448,1058.66 861.171,1054.9 863.521,1048.83C865.871,1042.76 865.483,1035.33 862.505,1029.37L673.529,651.417ZM500.042,1020.08L823.64,1020.08L661.841,696.487L500.042,1020.08Z" style="fill:url(#_Linear4);"/>
            </g>
            <g transform="matrix(-0.135684,0.102289,-0.0901667,-0.10203,5900.4,1602.06)">
                <path d="M674.056,652.983C671.256,647.382 666.342,643.735 661.104,643.371C655.865,643.007 651.066,645.978 648.454,651.203L459.478,1029.15C456.711,1034.69 456.835,1041.87 459.799,1047.8C462.764,1053.73 468.082,1057.45 473.614,1057.45L851.567,1057.45C856.792,1057.45 861.42,1054.13 863.767,1048.7C866.113,1043.28 865.834,1036.54 863.033,1030.94L674.056,652.983ZM824.499,1021.29L662.025,696.344L499.55,1021.29L824.499,1021.29Z" style="fill:url(#_Linear5);"/>
            </g>
            <g transform="matrix(0.106976,0.0740477,-0.0548446,0.0675921,5781.46,1405.83)">
                <path d="M673.977,647.949C671.237,642.468 666.705,639.427 661.811,639.783C656.917,640.14 652.263,643.85 649.316,649.745L460.339,1027.7C457.005,1034.37 456.349,1042.83 458.627,1049.77C460.904,1056.71 465.754,1061.03 471.276,1061.03L849.229,1061.03C855.027,1061.03 860.57,1056.28 863.494,1048.79C866.419,1041.31 866.208,1032.41 862.953,1025.9L673.977,647.949ZM501.21,1017.71L820.269,1017.71L660.739,698.649L501.21,1017.71Z" style="fill:url(#_Linear6);"/>
            </g>
            <g transform="matrix(0.017102,-0.0217633,0.023563,0.0157958,5399.33,1543.37)">
                <path d="M10329.8,13721.8C10329.8,13721.3 10329.8,13722.4 10329.8,13721.9C10329.8,13721.9 10329.8,13721.9 10329.9,13721.9C10329.9,13716.6 10350.6,13713.9 10355.9,13713.8C10387.5,13713.5 10393.2,13700.4 10406.5,13678.6C10414,13666.4 10427.2,13659 10441.5,13659C10468.8,13659 10448.4,13659 10475.3,13659C10488.7,13659 10501.2,13665.5 10508.9,13676.4C10522.7,13696.1 10531.6,13709.6 10559.9,13712.8C10565.3,13713.4 10585.9,13716.4 10585.9,13721.9L10585.9,13721.9C10585.9,13722.4 10585.9,13721.3 10585.9,13721.9C10585.9,13721.9 10585.9,13721.9 10585.9,13721.9C10585.9,13727.4 10565.3,13730.3 10559.9,13730.9C10531.6,13734.1 10522.7,13747.6 10508.9,13767.3C10501.2,13778.2 10488.7,13784.7 10475.3,13784.7C10448.4,13784.7 10468.8,13784.7 10441.5,13784.7C10427.2,13784.7 10414,13777.3 10406.5,13765.2C10393.2,13743.4 10387.5,13730.2 10355.9,13729.9C10350.6,13729.8 10329.9,13727.2 10329.9,13721.8C10329.8,13721.8 10329.8,13721.8 10329.8,13721.8Z" style="fill:rgb(239,249,250);fill-opacity:0.24;"/>
                <path d="M10585.8,13709.5C10588,13708 10590.2,13710.6 10590.2,13722.2L10590.2,13722.3C10590.1,13756 10584.3,13745.2 10582.3,13730.6C10575.4,13733.3 10564.5,13734.9 10560.7,13735.3C10533.8,13738.4 10525.5,13751.3 10512.4,13770.1C10504,13782 10490.3,13789.1 10475.7,13789.1C10448.8,13789.1 10469.2,13789.1 10441.8,13789.1C10425.9,13789.1 10411.2,13780.8 10402.9,13767.3C10395.4,13755 10390.7,13745.5 10381.6,13739.9C10375.6,13736.3 10367.8,13734.4 10356.2,13734.3C10352.3,13734.3 10341.1,13732.9 10334.1,13730.3C10333.8,13761.5 10331.8,13770.1 10329.8,13766C10327.7,13770.1 10325.5,13759.4 10325.5,13721.6L10326.6,13686.6C10326.8,13684.2 10327,13681.9 10327.5,13679.7L10327.9,13678.3C10328.1,13677.7 10328.6,13676.1 10329.4,13677C10329.5,13677.2 10329.6,13677.3 10329.7,13677.5L10329.8,13677.7C10331.8,13674 10333.8,13682.7 10334.1,13713.2C10341.1,13710.7 10351.8,13709.5 10355.5,13709.4C10367.2,13709.3 10375.1,13707.4 10381.2,13703.7C10390.4,13698.1 10395.2,13688.5 10402.8,13676C10411,13662.7 10425.5,13654.6 10441.1,13654.6C10468.5,13654.6 10448.1,13654.6 10475,13654.7C10489.8,13654.7 10503.7,13661.9 10512.3,13674C10525.3,13692.5 10533.5,13705.4 10560,13708.4C10563.9,13708.8 10575.2,13710.5 10582,13713.3C10582.7,13708 10584.3,13707.7 10585.8,13709.5ZM10585.9,13721.9L10585.9,13721.9C10585.9,13722.4 10585.9,13721.3 10585.9,13721.9C10585.9,13721.9 10585.9,13721.9 10585.9,13721.9C10585.9,13727.4 10565.3,13730.3 10559.9,13730.9C10531.6,13734.1 10522.7,13747.6 10508.9,13767.3C10501.2,13778.2 10488.7,13784.7 10475.3,13784.7C10448.4,13784.7 10468.8,13784.7 10441.5,13784.7C10427.2,13784.7 10414,13777.3 10406.5,13765.2C10393.2,13743.4 10387.5,13730.2 10355.9,13729.9C10350.6,13729.8 10329.9,13727.2 10329.9,13721.8C10329.8,13721.8 10329.8,13721.8 10329.8,13721.8C10329.8,13721.3 10329.8,13722.4 10329.8,13721.9C10329.8,13721.9 10329.8,13721.9 10329.9,13721.9C10329.9,13721.9 10329.9,13721.9 10329.9,13721.9L10585.9,13721.9ZM10329.9,13721.8C10329.8,13721.8 10329.8,13721.9 10329.9,13721.9L10329.9,13721.8Z" style="fill:url(#_Linear7);"/>
            </g>
            <g transform="matrix(0.0227825,-0.0337035,0.0364907,0.0210424,5036.86,1727.52)">
                <path d="M10329.8,13721.8C10329.8,13721.3 10329.8,13722.4 10329.8,13721.9C10329.8,13721.9 10329.8,13721.9 10329.9,13721.9C10329.9,13716.6 10350.6,13713.9 10355.9,13713.8C10387.5,13713.5 10393.2,13700.4 10406.5,13678.6C10414,13666.4 10427.2,13659 10441.5,13659C10468.8,13659 10448.4,13659 10475.3,13659C10488.7,13659 10501.2,13665.5 10508.9,13676.4C10522.7,13696.1 10531.6,13709.6 10559.9,13712.8C10565.3,13713.4 10585.9,13716.4 10585.9,13721.9L10585.9,13721.9C10585.9,13722.4 10585.9,13721.3 10585.9,13721.9C10585.9,13721.9 10585.9,13721.9 10585.9,13721.9C10585.9,13727.4 10565.3,13730.3 10559.9,13730.9C10531.6,13734.1 10522.7,13747.6 10508.9,13767.3C10501.2,13778.2 10488.7,13784.7 10475.3,13784.7C10448.4,13784.7 10468.8,13784.7 10441.5,13784.7C10427.2,13784.7 10414,13777.3 10406.5,13765.2C10393.2,13743.4 10387.5,13730.2 10355.9,13729.9C10350.6,13729.8 10329.9,13727.2 10329.9,13721.8C10329.8,13721.8 10329.8,13721.8 10329.8,13721.8Z" style="fill:rgb(239,249,250);fill-opacity:0.24;"/>
                <path d="M10583.5,13713.9C10586,13707.6 10590.1,13703.7 10590.1,13722L10590.1,13722.2C10590.1,13723.7 10590,13724.8 10589.7,13725.6C10588.2,13731.9 10583.7,13740.4 10582.1,13730.7C10575.3,13733.3 10564.4,13734.9 10560.6,13735.3C10533.8,13738.4 10525.5,13751.4 10512.4,13770.1C10503.9,13782 10490.2,13789.1 10475.7,13789.1C10448.7,13789.1 10469.1,13789.1 10441.8,13789.1C10425.9,13789.1 10411.2,13780.9 10402.9,13767.3C10395.4,13755 10390.7,13745.5 10381.6,13739.9C10375.6,13736.3 10367.8,13734.4 10356.2,13734.3C10352.3,13734.3 10341,13732.9 10334,13730.3C10333,13768.5 10325.6,13792.8 10325.6,13721.6L10325.6,13711.5C10325.7,13702.6 10325.8,13693.6 10326.7,13684.8C10326.9,13683.6 10327,13682.4 10327.2,13681.2C10327.3,13680.4 10327.5,13679.7 10327.6,13679C10327.7,13678.5 10327.8,13678.1 10328,13677.7C10328.1,13677.5 10328.1,13677.2 10328.3,13677C10328.3,13676.9 10328.4,13676.8 10328.4,13676.7C10329.3,13675.6 10330,13677.7 10330.2,13678.3L10331,13681.3L10331.8,13685.4C10331.9,13686.2 10332,13687 10332.1,13687.8C10332.5,13690.7 10332.8,13693.6 10333.1,13696.5C10333.5,13701.8 10333.8,13707.1 10334,13712.4L10334,13713.2C10341,13710.7 10351.8,13709.4 10355.5,13709.4C10367.3,13709.3 10375.2,13707.4 10381.2,13703.7C10390.4,13698 10395.3,13688.4 10402.8,13676C10411,13662.7 10425.5,13654.6 10441.2,13654.6C10468.5,13654.6 10448.1,13654.6 10475,13654.6C10489.8,13654.6 10503.7,13661.9 10512.2,13674C10525.2,13692.5 10533.5,13705.4 10560,13708.4C10564.1,13708.8 10575.9,13710.6 10582.7,13713.5C10583,13713.6 10583.2,13713.7 10583.5,13713.9ZM10585.9,13721.9L10585.9,13721.9C10585.9,13722.4 10585.9,13721.3 10585.9,13721.9C10585.9,13721.9 10585.9,13721.9 10585.9,13721.9C10585.9,13727.4 10565.3,13730.3 10559.9,13730.9C10531.6,13734.1 10522.7,13747.6 10508.9,13767.3C10501.2,13778.2 10488.7,13784.7 10475.3,13784.7C10448.4,13784.7 10468.8,13784.7 10441.5,13784.7C10427.2,13784.7 10414,13777.3 10406.5,13765.2C10393.2,13743.4 10387.5,13730.2 10355.9,13729.9C10350.6,13729.8 10329.9,13727.2 10329.9,13721.8C10329.8,13721.8 10329.8,13721.8 10329.8,13721.8C10329.8,13721.3 10329.8,13722.4 10329.8,13721.9C10329.8,13721.9 10329.8,13721.9 10329.9,13721.9C10329.9,13721.9 10329.9,13721.9 10329.9,13721.9L10585.9,13721.9ZM10329.9,13721.8C10329.8,13721.8 10329.8,13721.9 10329.9,13721.9L10329.9,13721.8Z" style="fill:url(#_Linear8);"/>
            </g>
            <g transform="matrix(0.0168614,-0.012705,0.0137556,0.0155735,5405.63,1467.64)">
                <path d="M10329.8,13721.8C10329.8,13721.3 10329.8,13722.4 10329.8,13721.9C10329.8,13721.9 10329.8,13721.9 10329.9,13721.9C10329.9,13716.6 10350.6,13713.9 10355.9,13713.8C10387.5,13713.5 10393.2,13700.4 10406.5,13678.6C10414,13666.4 10427.2,13659 10441.5,13659C10468.8,13659 10448.4,13659 10475.3,13659C10488.7,13659 10501.2,13665.5 10508.9,13676.4C10522.7,13696.1 10531.6,13709.6 10559.9,13712.8C10565.3,13713.4 10585.9,13716.4 10585.9,13721.9L10585.9,13721.9C10585.9,13722.4 10585.9,13721.3 10585.9,13721.9C10585.9,13721.9 10585.9,13721.9 10585.9,13721.9C10585.9,13727.4 10565.3,13730.3 10559.9,13730.9C10531.6,13734.1 10522.7,13747.6 10508.9,13767.3C10501.2,13778.2 10488.7,13784.7 10475.3,13784.7C10448.4,13784.7 10468.8,13784.7 10441.5,13784.7C10427.2,13784.7 10414,13777.3 10406.5,13765.2C10393.2,13743.4 10387.5,13730.2 10355.9,13729.9C10350.6,13729.8 10329.9,13727.2 10329.9,13721.8C10329.8,13721.8 10329.8,13721.8 10329.8,13721.8Z" style="fill:rgb(239,249,250);fill-opacity:0.24;"/>
                <path d="M10587.9,13717C10589.2,13717.3 10590.2,13718.8 10590.2,13722L10590.2,13722.2C10590.2,13735 10588.1,13736.4 10585.9,13733.8C10584.4,13735.4 10582.9,13735.1 10582.1,13730.6C10575.2,13733.2 10564.5,13734.8 10560.7,13735.2C10533.9,13738.3 10525.6,13751.3 10512.5,13770C10504.1,13781.9 10490.3,13789 10475.7,13789C10448.8,13789 10469.2,13789 10441.8,13789C10425.9,13789 10411.1,13780.7 10402.8,13767.2C10395.3,13754.9 10390.6,13745.4 10381.5,13739.8C10375.5,13736.2 10367.7,13734.3 10356.2,13734.2C10352.4,13734.2 10341.1,13732.8 10334.1,13730.2C10333.1,13767.2 10325.5,13790.6 10325.5,13721.6L10325.5,13721.4C10325.5,13653 10333,13676.6 10334.1,13713.2C10341.1,13710.8 10351.8,13709.6 10355.5,13709.5C10385.2,13709.2 10390.2,13696.6 10402.7,13676.1C10410.9,13662.8 10425.5,13654.7 10441.1,13654.7C10468.5,13654.7 10448.1,13654.7 10475,13654.7C10489.9,13654.7 10503.8,13662 10512.4,13674.1C10525.4,13692.6 10533.5,13705.5 10560,13708.5C10564.1,13709 10576,13710.7 10582.8,13713.7C10585,13714.6 10586.8,13715.8 10587.9,13717ZM10585.9,13721.9C10585.9,13721.9 10585.9,13721.9 10585.9,13721.9C10585.9,13722.4 10585.9,13721.3 10585.9,13721.9C10585.9,13721.9 10585.9,13721.9 10585.9,13721.9C10585.9,13727.4 10565.3,13730.3 10559.9,13730.9C10531.6,13734.1 10522.7,13747.6 10508.9,13767.3C10501.2,13778.2 10488.7,13784.7 10475.3,13784.7C10448.4,13784.7 10468.8,13784.7 10441.5,13784.7C10427.2,13784.7 10414,13777.3 10406.5,13765.2C10393.2,13743.4 10387.5,13730.2 10355.9,13729.9C10350.6,13729.8 10329.9,13727.2 10329.9,13721.8C10329.8,13721.8 10329.8,13721.8 10329.8,13721.8C10329.8,13721.3 10329.8,13722.4 10329.8,13721.9C10329.8,13721.9 10329.8,13721.9 10329.9,13721.9C10329.9,13721.9 10329.9,13721.9 10329.9,13721.9L10585.9,13721.9ZM10329.9,13721.8C10329.8,13721.8 10329.8,13721.9 10329.9,13721.9L10329.9,13721.8Z" style="fill:url(#_Linear9);"/>
            </g>
            <g transform="matrix(0.0231549,-0.00163906,0.00177461,0.0213864,5556.13,1228.35)">
                <path d="M10329.8,13721.8C10329.8,13721.3 10329.8,13722.4 10329.8,13721.9C10329.8,13721.9 10329.8,13721.9 10329.9,13721.9C10329.9,13716.6 10350.6,13713.9 10355.9,13713.8C10387.5,13713.5 10393.2,13700.4 10406.5,13678.6C10414,13666.4 10427.2,13659 10441.5,13659C10468.8,13659 10448.4,13659 10475.3,13659C10488.7,13659 10501.2,13665.5 10508.9,13676.4C10522.7,13696.1 10531.6,13709.6 10559.9,13712.8C10565.3,13713.4 10585.9,13716.4 10585.9,13721.9L10585.9,13721.9C10585.9,13722.4 10585.9,13721.3 10585.9,13721.9C10585.9,13721.9 10585.9,13721.9 10585.9,13721.9C10585.9,13727.4 10565.3,13730.3 10559.9,13730.9C10531.6,13734.1 10522.7,13747.6 10508.9,13767.3C10501.2,13778.2 10488.7,13784.7 10475.3,13784.7C10448.4,13784.7 10468.8,13784.7 10441.5,13784.7C10427.2,13784.7 10414,13777.3 10406.5,13765.2C10393.2,13743.4 10387.5,13730.2 10355.9,13729.9C10350.6,13729.8 10329.9,13727.2 10329.9,13721.8C10329.8,13721.8 10329.8,13721.8 10329.8,13721.8Z" style="fill:rgb(239,249,250);fill-opacity:0.24;"/>
                <path d="M10334.4,13713.2C10341.5,13710.8 10352.1,13709.5 10355.8,13709.5C10367.3,13709.4 10375,13707.5 10380.9,13703.9C10390.2,13698.3 10394.9,13688.8 10402.4,13676.4C10410.7,13662.9 10425.5,13654.7 10441.4,13654.7C10468.8,13654.7 10448.4,13654.7 10475.3,13654.7C10490.2,13654.7 10504.1,13661.9 10512.8,13674.1C10525.7,13692.6 10533.9,13705.5 10560.4,13708.5C10564.4,13709 10576.2,13710.7 10583,13713.6C10585.8,13707.7 10590.5,13705.7 10590.5,13721.8L10590.5,13721.9C10590.5,13753.8 10584.7,13745.8 10582.2,13732.5C10582.1,13732 10581.9,13731.4 10581.8,13730.6C10574.9,13733.3 10564.3,13734.8 10560.5,13735.2C10533.9,13738.2 10525.8,13751.2 10512.8,13769.7C10504.2,13781.8 10490.2,13789 10475.4,13789C10448.5,13789 10468.9,13789 10441.5,13789C10425.6,13789 10410.8,13780.8 10402.4,13767.2C10394.9,13754.9 10390.2,13745.4 10381,13739.8C10375.1,13736.2 10367.4,13734.3 10355.9,13734.2C10352.2,13734.2 10341.5,13732.9 10334.4,13730.5C10333.2,13767.4 10325.2,13790.9 10325.2,13721.8L10325.2,13721.7C10325.2,13652.8 10333.2,13676.3 10334.4,13713.2ZM10585.9,13721.9C10585.9,13721.9 10585.9,13721.9 10585.9,13721.9C10585.9,13722.4 10585.9,13721.3 10585.9,13721.9C10585.9,13721.9 10585.9,13721.9 10585.9,13721.9C10585.9,13727.4 10565.3,13730.3 10559.9,13730.9C10531.6,13734.1 10522.7,13747.6 10508.9,13767.3C10501.2,13778.2 10488.7,13784.7 10475.3,13784.7C10448.4,13784.7 10468.8,13784.7 10441.5,13784.7C10427.2,13784.7 10414,13777.3 10406.5,13765.2C10393.2,13743.4 10387.5,13730.2 10355.9,13729.9C10350.6,13729.8 10329.9,13727.2 10329.9,13721.8C10329.8,13721.8 10329.8,13721.8 10329.8,13721.8C10329.8,13721.3 10329.8,13722.4 10329.8,13721.9C10329.8,13721.9 10329.8,13721.9 10329.9,13721.9C10329.9,13721.9 10329.9,13721.9 10329.9,13721.9L10585.9,13721.9ZM10329.9,13721.8C10329.8,13721.8 10329.8,13721.9 10329.9,13721.9L10329.9,13721.8Z" style="fill:url(#_Linear10);"/>
            </g>
            <g transform="matrix(0.0326778,0,0,0.0301819,5317.8,1149.54)">
                <path d="M10329.8,13721.8C10329.8,13721.3 10329.8,13722.4 10329.8,13721.9C10329.8,13721.9 10329.8,13721.9 10329.9,13721.9C10329.9,13716.6 10350.6,13713.9 10355.9,13713.8C10387.5,13713.5 10393.2,13700.4 10406.5,13678.6C10414,13666.4 10427.2,13659 10441.5,13659C10468.8,13659 10448.4,13659 10475.3,13659C10488.7,13659 10501.2,13665.5 10508.9,13676.4C10522.7,13696.1 10531.6,13709.6 10559.9,13712.8C10565.3,13713.4 10585.9,13716.4 10585.9,13721.9L10585.9,13721.9C10585.9,13722.4 10585.9,13721.3 10585.9,13721.9C10585.9,13721.9 10585.9,13721.9 10585.9,13721.9C10585.9,13727.4 10565.3,13730.3 10559.9,13730.9C10531.6,13734.1 10522.7,13747.6 10508.9,13767.3C10501.2,13778.2 10488.7,13784.7 10475.3,13784.7C10448.4,13784.7 10468.8,13784.7 10441.5,13784.7C10427.2,13784.7 10414,13777.3 10406.5,13765.2C10393.2,13743.4 10387.5,13730.2 10355.9,13729.9C10350.6,13729.8 10329.9,13727.2 10329.9,13721.8C10329.8,13721.8 10329.8,13721.8 10329.8,13721.8Z" style="fill:rgb(239,249,250);fill-opacity:0.24;"/>
                <path d="M10334.5,13713.1C10341.6,13710.8 10352.1,13709.5 10355.8,13709.5C10367.3,13709.4 10375.1,13707.5 10381,13703.9C10390.2,13698.3 10394.9,13688.8 10402.4,13676.4C10410.7,13662.9 10425.6,13654.7 10441.5,13654.7C10468.8,13654.7 10448.4,13654.7 10475.3,13654.7C10490.2,13654.7 10504.2,13661.9 10512.8,13674C10525.8,13692.5 10533.9,13705.5 10560.4,13708.5C10564.2,13708.9 10574.8,13710.4 10581.8,13713C10583.4,13703.5 10588.4,13712.1 10590,13718.5C10590.4,13719.3 10590.6,13720.4 10590.6,13721.8L10590.6,13722C10590.5,13739.5 10586.2,13736 10583.4,13730L10583.3,13730C10576.5,13733 10564.5,13734.8 10560.4,13735.2C10533.9,13738.2 10525.8,13751.2 10512.8,13769.7C10504.2,13781.8 10490.2,13789 10475.3,13789C10448.4,13789 10468.8,13789 10441.5,13789C10425.6,13789 10410.7,13780.9 10402.4,13767.3C10394.9,13754.9 10390.2,13745.4 10381,13739.8C10375.1,13736.2 10367.3,13734.3 10355.8,13734.2C10352.1,13734.2 10341.6,13733 10334.5,13730.6C10334.1,13760.9 10332,13769.3 10329.8,13765.5C10327.5,13769.7 10325.1,13759.3 10325.1,13721.9L10325.1,13721.8C10325.2,13710.3 10325.1,13698.7 10326.3,13687.2C10326.5,13684.9 10326.8,13682.6 10327.3,13680.3L10327.7,13678.9C10327.9,13678.4 10328.5,13676.7 10329.4,13677.6C10329.5,13677.7 10329.6,13677.8 10329.7,13678L10329.8,13678.2C10332,13674.4 10334.1,13682.8 10334.5,13713.1ZM10585.9,13721.9L10585.9,13721.9C10585.9,13722.4 10585.9,13721.3 10585.9,13721.9L10585.9,13721.9C10585.9,13727.4 10565.3,13730.3 10559.9,13730.9C10531.6,13734.1 10522.7,13747.6 10508.9,13767.3C10501.2,13778.2 10488.7,13784.7 10475.3,13784.7C10448.4,13784.7 10468.8,13784.7 10441.5,13784.7C10427.2,13784.7 10414,13777.3 10406.5,13765.2C10393.2,13743.4 10387.5,13730.2 10355.9,13729.9C10350.6,13729.8 10329.9,13727.2 10329.9,13721.8C10329.8,13721.8 10329.8,13721.8 10329.8,13721.8C10329.8,13721.3 10329.8,13722.4 10329.8,13721.9C10329.8,13721.9 10329.8,13721.9 10329.9,13721.9C10329.9,13721.9 10329.9,13721.9 10329.9,13721.9L10585.9,13721.9ZM10329.9,13721.8C10329.8,13721.8 10329.8,13721.9 10329.9,13721.9L10329.9,13721.8Z" style="fill:url(#_Linear11);"/>
            </g>
            <g transform="matrix(0.0362349,0.000246591,-0.00023545,0.0295144,5543.71,1230.97)">
                <path d="M10329.8,13721.8C10329.8,13721.3 10329.8,13722.4 10329.8,13721.9C10329.8,13721.9 10329.8,13721.9 10329.9,13721.9C10329.9,13716.6 10350.6,13713.9 10355.9,13713.8C10387.5,13713.5 10393.2,13700.4 10406.5,13678.6C10414,13666.4 10427.2,13659 10441.5,13659C10468.8,13659 10448.4,13659 10475.3,13659C10488.7,13659 10501.2,13665.5 10508.9,13676.4C10522.7,13696.1 10531.6,13709.6 10559.9,13712.8C10565.3,13713.4 10585.9,13716.4 10585.9,13721.9L10585.9,13721.9C10585.9,13722.4 10585.9,13721.3 10585.9,13721.9C10585.9,13721.9 10585.9,13721.9 10585.9,13721.9C10585.9,13727.4 10565.3,13730.3 10559.9,13730.9C10531.6,13734.1 10522.7,13747.6 10508.9,13767.3C10501.2,13778.2 10488.7,13784.7 10475.3,13784.7C10448.4,13784.7 10468.8,13784.7 10441.5,13784.7C10427.2,13784.7 10414,13777.3 10406.5,13765.2C10393.2,13743.4 10387.5,13730.2 10355.9,13729.9C10350.6,13729.8 10329.9,13727.2 10329.9,13721.8C10329.8,13721.8 10329.8,13721.8 10329.8,13721.8Z" style="fill:rgb(239,249,250);fill-opacity:0.24;"/>
                <path d="M10334.2,13713C10341.2,13710.5 10352.1,13709.2 10355.9,13709.2C10367.5,13709.1 10375.4,13707.2 10381.3,13703.6C10390.5,13698 10395.3,13688.4 10402.8,13676.1C10411.1,13662.6 10425.7,13654.4 10441.5,13654.4C10468.8,13654.4 10448.4,13654.4 10475.3,13654.4C10490.1,13654.4 10503.9,13661.6 10512.4,13673.7C10525.5,13692.3 10533.7,13705.2 10560.3,13708.2C10564.2,13708.6 10575.1,13710.2 10582,13712.9C10583.5,13702.1 10588.2,13711.4 10589.8,13718.3C10590.1,13719.1 10590.3,13720.3 10590.3,13721.8L10590.3,13722C10590.3,13741 10586,13736.8 10583.4,13730.2C10583.3,13730.3 10583.1,13730.3 10583,13730.4C10576.2,13733.3 10564.4,13735.1 10560.3,13735.5C10533.7,13738.5 10525.4,13751.5 10512.4,13770.1C10503.9,13782.1 10490.1,13789.3 10475.3,13789.3C10448.4,13789.3 10468.8,13789.3 10441.5,13789.3C10425.7,13789.3 10411,13781.1 10402.8,13767.6C10395.3,13755.3 10390.5,13745.8 10381.3,13740.2C10375.4,13736.5 10367.5,13734.6 10355.8,13734.5C10352.1,13734.5 10341.2,13733.2 10334.2,13730.7C10333.9,13763.3 10331.9,13772.4 10329.8,13768.3C10327.6,13772.8 10325.4,13761.7 10325.4,13721.9L10325.4,13721.8C10325.4,13709.6 10325.4,13697.2 10326.5,13685C10326.7,13682.5 10327,13680.1 10327.5,13677.6L10327.8,13676.2C10328,13675.6 10328.6,13673.8 10329.4,13674.7C10329.5,13674.9 10329.6,13675 10329.7,13675.2L10329.8,13675.4C10331.9,13671.3 10333.9,13680.4 10334.2,13713ZM10585.9,13721.9C10585.9,13721.9 10585.9,13721.9 10585.9,13721.9C10585.9,13722.4 10585.9,13721.3 10585.9,13721.9C10585.9,13721.9 10585.9,13721.9 10585.9,13721.9C10585.9,13727.4 10565.3,13730.3 10559.9,13730.9C10531.6,13734.1 10522.7,13747.6 10508.9,13767.3C10501.2,13778.2 10488.7,13784.7 10475.3,13784.7C10448.4,13784.7 10468.8,13784.7 10441.5,13784.7C10427.2,13784.7 10414,13777.3 10406.5,13765.2C10393.2,13743.4 10387.5,13730.2 10355.9,13729.9C10350.6,13729.8 10329.9,13727.2 10329.9,13721.8C10329.8,13721.8 10329.8,13721.8 10329.8,13721.8C10329.8,13721.3 10329.8,13722.4 10329.8,13721.9C10329.8,13721.9 10329.8,13721.9 10329.9,13721.9C10329.9,13721.9 10329.9,13721.9 10329.9,13721.9L10585.9,13721.9ZM10329.9,13721.8C10329.8,13721.8 10329.8,13721.9 10329.9,13721.9L10329.9,13721.8Z" style="fill:url(#_Linear12);"/>
            </g>
            <g opacity="0.6">
                <g transform="matrix(0.0536357,0,0,0.049539,5343.84,845.31)">
                    <path d="M11573,14189L4758,14189" style="fill:none;stroke:url(#_Linear13);stroke-width:4.5px;"/>
                </g>
                <g transform="matrix(0.0536357,0,0,0.049539,5343.84,834.065)">
                    <path d="M11573,14087C11573,14087 11149,14097 10036,14097C8644,14097 7438,14726 5881.12,14726C5299.66,14726 4761,14732 4761,14732" style="fill:none;stroke:url(#_Linear14);stroke-width:4.5px;"/>
                </g>
                <g transform="matrix(0.0536357,0,0,0.049539,5345.4,906.689)">
                    <path d="M11573,14087C11573,14087 11149,14097 10036,14097C8644,14097 7438,14726 5881.12,14726C5299.66,14726 4761,14732 4761,14732" style="fill:none;stroke:url(#_Linear15);stroke-width:4.5px;"/>
                </g>
                <g transform="matrix(0.0536357,0,0,0.0275729,5343.84,1128.39)">
                    <path d="M11573,14087C11573,14087 11149,14097 10036,14097C8644,14097 7438,14726 5881.12,14726C5299.66,14726 4761,14732 4761,14732" style="fill:none;stroke:url(#_Linear16);stroke-width:4.5px;"/>
                </g>
                <g transform="matrix(-0.0536357,-1.20017e-17,-1.85343e-18,-0.0210445,6219.93,1810.89)">
                    <path d="M11573,14087C11573,14087 11149,14097 10036,14097C8644,14097 7438,14726 5881.12,14726C5299.66,14726 4761,14732 4761,14732" style="fill:none;stroke:url(#_Linear17);stroke-width:4.5px;"/>
                </g>
                <g transform="matrix(0.0536357,0,0,-0.0203532,5343.84,1863.72)">
                    <path d="M11573,14087C11573,14087 11149,14097 10036,14097C8644,14097 7438,14726 5881.12,14726C5299.66,14726 4761,14732 4761,14732" style="fill:none;stroke:url(#_Linear18);stroke-width:4.5px;"/>
                </g>
                <g transform="matrix(0.057423,-1.22775e-17,5.4614e-18,-0.0629799,5298.78,2526.27)">
                    <path d="M11573,14087C11573,14087 11149,14097 10036,14097C8644,14097 7438,14726 5881.12,14726C5299.66,14726 4761,14732 4761,14732" style="fill:none;stroke:url(#_Linear19);stroke-width:4.5px;"/>
                </g>
                <g transform="matrix(0.0574041,0.00136051,-0.00148679,0.0535153,5320.41,915.761)">
                    <path d="M11573,14087C11573,14087 10372.2,13854.9 8836.56,14088.4C7175.21,14340.9 5208.55,14019.5 3593.64,13357.1" style="fill:none;stroke:url(#_Linear20);stroke-width:4.5px;"/>
                </g>
                <g transform="matrix(0.0536357,0,0,-0.049539,5343.84,2261.73)">
                    <path d="M10884,15788C10631.5,14546.5 9369.59,13663.9 8593.05,12799.7C7961.72,12097.1 7351,10816.5 7116.12,10279.1C7065.25,10162.7 6975.83,9955.33 6931.72,9840.62" style="fill:none;stroke:url(#_Linear21);stroke-width:5.5px;"/>
                </g>
                <g transform="matrix(0.0640932,-1.31817e-18,1.42718e-18,-0.0699614,5295.4,2585)">
                    <path d="M10884,15788C9796.94,13250.9 8978.51,12624.3 8687.29,11523.9" style="fill:none;stroke:url(#_Linear22);stroke-width:5.5px;"/>
                </g>
                <g transform="matrix(0.0536357,0,0,-0.049539,5294.66,2250.53)">
                    <path d="M10884,15788C9692,13184 8637,13269 7892,12103" style="fill:none;stroke:url(#_Linear23);stroke-width:2.5px;"/>
                </g>
                <g transform="matrix(0.0536357,0,0,-0.049539,5294.66,2250.53)">
                    <path d="M9979,15702C10067,15112 8642,13535 5761,12443" style="fill:none;stroke:url(#_Linear24);stroke-width:5px;"/>
                </g>
            </g>
        </g>
    </g>
    <defs>
        <radialGradient id="_Radial1" cx="0" cy="0" r="1" gradientUnits="userSpaceOnUse" gradientTransform="matrix(355.711,35.6279,44.7015,219.404,21940.6,8021.72)"><stop offset="0" style="stop-color:rgb(23,142,213);stop-opacity:1"/><stop offset="1" style="stop-color:rgb(24,71,129);stop-opacity:1"/></radialGradient>
        <linearGradient id="_Linear2" x1="0" y1="0" x2="1" y2="-0.0747787" gradientUnits="userSpaceOnUse" gradientTransform="matrix(377.953,0,0,377.953,472.441,850.394)"><stop offset="0" style="stop-color:rgb(23,142,213);stop-opacity:1"/><stop offset="1" style="stop-color:rgb(23,142,213);stop-opacity:0"/></linearGradient>
        <linearGradient id="_Linear3" x1="0" y1="0" x2="1" y2="-0.0547148" gradientUnits="userSpaceOnUse" gradientTransform="matrix(377.953,0,0,377.953,472.441,850.394)"><stop offset="0" style="stop-color:rgb(23,142,213);stop-opacity:1"/><stop offset="1" style="stop-color:rgb(23,142,213);stop-opacity:0"/></linearGradient>
        <linearGradient id="_Linear4" x1="0" y1="0" x2="1" y2="-0.158789" gradientUnits="userSpaceOnUse" gradientTransform="matrix(183.684,-205.976,154.892,183.684,601.02,1056.57)"><stop offset="0" style="stop-color:rgb(23,142,213);stop-opacity:1"/><stop offset="1" style="stop-color:rgb(23,142,213);stop-opacity:0"/></linearGradient>
        <linearGradient id="_Linear5" x1="0" y1="0" x2="1" y2="0.0948399" gradientUnits="userSpaceOnUse" gradientTransform="matrix(377.953,0,0,377.953,472.441,850.394)"><stop offset="0" style="stop-color:rgb(23,142,213);stop-opacity:1"/><stop offset="1" style="stop-color:rgb(23,142,213);stop-opacity:0"/></linearGradient>
        <linearGradient id="_Linear6" x1="0" y1="0" x2="1" y2="-0.109879" gradientUnits="userSpaceOnUse" gradientTransform="matrix(377.953,0,0,377.953,472.441,850.394)"><stop offset="0" style="stop-color:rgb(23,142,213);stop-opacity:1"/><stop offset="1" style="stop-color:rgb(23,142,213);stop-opacity:0"/></linearGradient>
        <linearGradient id="_Linear7" x1="0" y1="0" x2="1" y2="0" gradientUnits="userSpaceOnUse" gradientTransform="matrix(1.75146e+06,0,0,2e-06,1.23318e+06,1.56028e+06)"><stop offset="0" style="stop-color:rgb(241,250,251);stop-opacity:0"/><stop offset="0.47" style="stop-color:rgb(241,250,251);stop-opacity:0.16"/><stop offset="1" style="stop-color:rgb(241,250,251);stop-opacity:0.21"/></linearGradient>
        <linearGradient id="_Linear8" x1="0" y1="0" x2="1" y2="0" gradientUnits="userSpaceOnUse" gradientTransform="matrix(1.75146e+06,0,0,2e-06,1.23318e+06,1.56028e+06)"><stop offset="0" style="stop-color:rgb(241,250,251);stop-opacity:0"/><stop offset="0.47" style="stop-color:rgb(241,250,251);stop-opacity:0.16"/><stop offset="1" style="stop-color:rgb(241,250,251);stop-opacity:0.21"/></linearGradient>
        <linearGradient id="_Linear9" x1="0" y1="0" x2="1" y2="0" gradientUnits="userSpaceOnUse" gradientTransform="matrix(1.75146e+06,0,0,2e-06,1.23318e+06,1.56028e+06)"><stop offset="0" style="stop-color:rgb(241,250,251);stop-opacity:0"/><stop offset="0.47" style="stop-color:rgb(241,250,251);stop-opacity:0.16"/><stop offset="1" style="stop-color:rgb(241,250,251);stop-opacity:0.21"/></linearGradient>
        <linearGradient id="_Linear10" x1="0" y1="0" x2="1" y2="0" gradientUnits="userSpaceOnUse" gradientTransform="matrix(1.75146e+06,0,0,2e-06,1.23318e+06,1.56028e+06)"><stop offset="0" style="stop-color:rgb(241,250,251);stop-opacity:0"/><stop offset="0.47" style="stop-color:rgb(241,250,251);stop-opacity:0.16"/><stop offset="1" style="stop-color:rgb(241,250,251);stop-opacity:0.21"/></linearGradient>
        <linearGradient id="_Linear11" x1="0" y1="0" x2="1" y2="0" gradientUnits="userSpaceOnUse" gradientTransform="matrix(1.75146e+06,0,0,2e-06,1.23318e+06,1.56028e+06)"><stop offset="0" style="stop-color:rgb(241,250,251);stop-opacity:0"/><stop offset="0.47" style="stop-color:rgb(241,250,251);stop-opacity:0.16"/><stop offset="1" style="stop-color:rgb(241,250,251);stop-opacity:0.21"/></linearGradient>
        <linearGradient id="_Linear12" x1="0" y1="0" x2="1" y2="0" gradientUnits="userSpaceOnUse" gradientTransform="matrix(1.75146e+06,0,0,2e-06,1.23318e+06,1.56028e+06)"><stop offset="0" style="stop-color:rgb(241,250,251);stop-opacity:0"/><stop offset="0.47" style="stop-color:rgb(241,250,251);stop-opacity:0.16"/><stop offset="1" style="stop-color:rgb(241,250,251);stop-opacity:0.21"/></linearGradient>
        <linearGradient id="_Linear13" x1="0" y1="0" x2="1" y2="0" gradientUnits="userSpaceOnUse" gradientTransform="matrix(6815,0,0,2e-06,4758,14189)"><stop offset="0" style="stop-color:rgb(241,250,251);stop-opacity:0"/><stop offset="0.47" style="stop-color:rgb(241,250,251);stop-opacity:0.39"/><stop offset="1" style="stop-color:rgb(241,250,251);stop-opacity:0.5"/></linearGradient>
        <linearGradient id="_Linear14" x1="0" y1="0" x2="1" y2="0" gradientUnits="userSpaceOnUse" gradientTransform="matrix(6815,0,0,2e-06,4758,14189)"><stop offset="0" style="stop-color:rgb(241,250,251);stop-opacity:0"/><stop offset="0.47" style="stop-color:rgb(241,250,251);stop-opacity:0.39"/><stop offset="1" style="stop-color:rgb(241,250,251);stop-opacity:0.5"/></linearGradient>
        <linearGradient id="_Linear15" x1="0" y1="0" x2="1" y2="0" gradientUnits="userSpaceOnUse" gradientTransform="matrix(6815,0,0,2e-06,4758,14189)"><stop offset="0" style="stop-color:rgb(241,250,251);stop-opacity:0"/><stop offset="0.47" style="stop-color:rgb(241,250,251);stop-opacity:0.31"/><stop offset="1" style="stop-color:rgb(241,250,251);stop-opacity:0.41"/></linearGradient>
        <linearGradient id="_Linear16" x1="0" y1="0" x2="1" y2="0" gradientUnits="userSpaceOnUse" gradientTransform="matrix(6815,0,0,2e-06,4758,14189)"><stop offset="0" style="stop-color:rgb(241,250,251);stop-opacity:0"/><stop offset="0.47" style="stop-color:rgb(241,250,251);stop-opacity:0.39"/><stop offset="1" style="stop-color:rgb(241,250,251);stop-opacity:0.5"/></linearGradient>
        <linearGradient id="_Linear17" x1="0" y1="0" x2="1" y2="0" gradientUnits="userSpaceOnUse" gradientTransform="matrix(6815,0,0,2e-06,4758,14189)"><stop offset="0" style="stop-color:rgb(241,250,251);stop-opacity:0.5"/><stop offset="0.53" style="stop-color:rgb(241,250,251);stop-opacity:0.39"/><stop offset="1" style="stop-color:rgb(241,250,251);stop-opacity:0"/></linearGradient>
        <linearGradient id="_Linear18" x1="0" y1="0" x2="1" y2="0" gradientUnits="userSpaceOnUse" gradientTransform="matrix(6815,0,0,2e-06,4758,14189)"><stop offset="0" style="stop-color:rgb(241,250,251);stop-opacity:0"/><stop offset="0.47" style="stop-color:rgb(241,250,251);stop-opacity:0.2"/><stop offset="1" style="stop-color:rgb(241,250,251);stop-opacity:0.26"/></linearGradient>
        <linearGradient id="_Linear19" x1="0" y1="0" x2="1" y2="0" gradientUnits="userSpaceOnUse" gradientTransform="matrix(6815,0,0,2e-06,4758,14189)"><stop offset="0" style="stop-color:rgb(241,250,251);stop-opacity:0"/><stop offset="0.47" style="stop-color:rgb(241,250,251);stop-opacity:0.39"/><stop offset="1" style="stop-color:rgb(241,250,251);stop-opacity:0.5"/></linearGradient>
        <linearGradient id="_Linear20" x1="0" y1="0" x2="1" y2="0" gradientUnits="userSpaceOnUse" gradientTransform="matrix(6815,0,0,2e-06,4758,14189)"><stop offset="0" style="stop-color:rgb(241,250,251);stop-opacity:0"/><stop offset="0.47" style="stop-color:rgb(241,250,251);stop-opacity:0.39"/><stop offset="1" style="stop-color:rgb(241,250,251);stop-opacity:0.5"/></linearGradient>
        <linearGradient id="_Linear21" x1="0" y1="0" x2="1" y2="0" gradientUnits="userSpaceOnUse" gradientTransform="matrix(6815,0,0,2e-06,4758,14189)"><stop offset="0" style="stop-color:rgb(241,250,251);stop-opacity:0"/><stop offset="0.47" style="stop-color:rgb(241,250,251);stop-opacity:0.39"/><stop offset="1" style="stop-color:rgb(241,250,251);stop-opacity:0.5"/></linearGradient>
        <linearGradient id="_Linear22" x1="0" y1="0" x2="1" y2="0" gradientUnits="userSpaceOnUse" gradientTransform="matrix(6815,0,0,2e-06,4758,14189)"><stop offset="0" style="stop-color:rgb(241,250,251);stop-opacity:0"/><stop offset="0.47" style="stop-color:rgb(241,250,251);stop-opacity:0.39"/><stop offset="1" style="stop-color:rgb(241,250,251);stop-opacity:0.5"/></linearGradient>
        <linearGradient id="_Linear23" x1="0" y1="0" x2="1" y2="0" gradientUnits="userSpaceOnUse" gradientTransform="matrix(6815,0,0,2e-06,4758,14189)"><stop offset="0" style="stop-color:rgb(241,250,251);stop-opacity:0"/><stop offset="0.47" style="stop-color:rgb(241,250,251);stop-opacity:0.32"/><stop offset="1" style="stop-color:rgb(241,250,251);stop-opacity:0.42"/></linearGradient>
        <linearGradient id="_Linear24" x1="0" y1="0" x2="1" y2="0" gradientUnits="userSpaceOnUse" gradientTransform="matrix(6815,0,0,2e-06,4758,14189)"><stop offset="0" style="stop-color:rgb(241,250,251);stop-opacity:0"/><stop offset="0.47" style="stop-color:rgb(241,250,251);stop-opacity:0.17"/><stop offset="1" style="stop-color:rgb(241,250,251);stop-opacity:0.22"/></linearGradient>
    </defs>
</svg>
